<svg xmlns="http://www.w3.org/2000/svg" version="1.0" width="300" height="300" viewBox="0 0 200 200" preserveAspectRatio="xMidYMid meet">
    <g transform="translate(0, 0) scale(0.100000,-0.100000)" fill="#000000" stroke="none">
        <path d="M484 10 c-16 -7 -46 -32 -66 -55 -77 -90 -89 -230 -30 -355 28 -59 34 -66 59 -66 32 0 53 16 53 39 0 9 -11 43 -25 76 -15 36 -25 80 -25 110 0 52 25 121 52 143 14 11 17 7 22 -25 14 -80 39 -134 83 -183 50 -55 93 -67 113 -31 15 30 13 36 -30 86 -26 30 -45 65 -55 103 -9 31 -20 74 -26 94 -10 38 -50 78 -78 78 -9 -1 -30 -7 -47 -14z"/>
        <path d="M1571 -243 c-20 -21 -50 -58 -67 -84 -22 -32 -48 -53 -90 -75 -47 -23 -60 -34 -62 -56 -2 -20 3 -31 22 -43 24 -16 28 -16 83 10 68 31 102 61 145 128 33 52 40 50 53 -10 11 -56 -19 -134 -75 -196 -53 -58 -59 -76 -34 -101 28 -29 59 -19 108 34 66 71 99 146 99 229 1 85 -16 133 -59 171 -47 41 -78 39 -123 -7z"/>
        <path d="M85 -333 c-28 -27 -16 -137 22 -205 50 -89 143 -144 181 -106 25 25 13 57 -33 90 -39 27 -96 111 -84 122 2 2 32 -1 66 -7 72 -12 93 -2 93 44 0 36 -14 43 -121 63 -105 20 -104 20 -124 -1z"/>
        <path d="M730 -396 c-238 -62 -429 -241 -509 -477 -41 -122 -47 -330 -10 -354 22 -14 46 -11 64 8 13 13 16 29 12 72 -25 298 178 580 473 656 99 26 272 17 365 -19 348 -134 507 -517 354 -854 -16 -36 -29 -72 -29 -81 0 -25 20 -41 52 -41 26 0 33 7 63 73 53 110 69 186 70 312 0 61 -6 135 -14 165 -65 263 -272 475 -527 540 -103 27 -261 26 -364 0z"/>
        <path d="M1712 -648 c-17 -17 -15 -54 3 -72 8 -8 35 -18 60 -22 27 -4 45 -12 45 -19 0 -19 -57 -64 -88 -71 -71 -15 -93 -44 -65 -83 18 -27 64 -27 123 0 60 27 107 74 136 134 42 88 33 102 -77 126 -99 22 -121 23 -137 7z"/>
        <path d="M530 -966 c-11 -11 -20 -33 -20 -50 0 -17 9 -39 20 -50 11 -11 33 -20 50 -20 17 0 39 9 50 20 11 11 20 33 20 50 0 17 -9 39 -20 50 -11 11 -33 20 -50 20 -17 0 -39 -9 -50 -20z"/>
        <path d="M1200 -1096 c-26 -26 -26 -81 -2 -103 45 -40 122 -6 122 53 0 17 -9 39 -20 50 -11 11 -33 20 -50 20 -17 0 -39 -9 -50 -20z"/>
        <path fill="#ffe4ab" d="M501 -1171 c-140 -32 -247 -102 -287 -190 -121 -259 285 -555 761 -555 239 0 437 98 475 235 55 196 -148 401 -486 491 -124 33 -359 43 -463 19z m429 -114 c47 -12 130 -44 185z"/>
        <path d="M501 -1171 c-140 -32 -247 -102 -287 -190 -121 -259 285 -555 761 -555 239 0 437 98 475 235 55 196 -148 401 -486 491 -124 33 -359 43 -463 19z m429 -114 c47 -12 130 -44 185 -71 301 -147 329 -348 61 -433 -95 -29 -301 -31 -421 -3 -338 78 -548 284 -430 424 32 39 113 80 188 97 90 21 306 13 417 -14z"/>
        <path d="M576 -1448 c-19 -26 -20 -51 -6 -79 28 -52 97 20 72 76 -14 31 -46 33 -66 3z"/>
        <path d="M1015 -1571 c-28 -65 21 -117 59 -63 30 42 18 98 -21 98 -18 0 -28 -9 -38 -35z"/>
    </g>
</svg>
